REM DIRINDEX 1\2,1\3
REM DIRNAME folder01,folder02,folder03
TITLE ""
FILE "1021-1040.mp3" MP3
  TRACK 01 AUDIO
    TITLE "0:"
    INDEX 01 00:00:00
  TRACK 02 AUDIO
    TITLE "2:cjc039_1041"
    INDEX 01 00:00:27
  TRACK 03 AUDIO
    TITLE "0:"
    INDEX 01 00:01:46
  TRACK 04 AUDIO
    TITLE "3:cjc039_1042"
    INDEX 01 00:02:20
  TRACK 05 AUDIO
    TITLE "0:"
    INDEX 01 00:06:20
  TRACK 06 AUDIO
    TITLE "2:cjc039_1043"
    INDEX 01 00:08:01
  TRACK 07 AUDIO
    TITLE "0:"
    INDEX 01 00:09:28
  TRACK 08 AUDIO
    TITLE "3:cjc039_1044"
    INDEX 01 00:10:04
  TRACK 09 AUDIO
    TITLE "0:"
    INDEX 01 00:14:07
  TRACK 10 AUDIO
    TITLE "2:cjc039_1045"
    INDEX 01 00:15:52
  TRACK 11 AUDIO
    TITLE "0:"
    INDEX 01 00:16:59
  TRACK 12 AUDIO
    TITLE "3:cjc039_1046"
    INDEX 01 00:17:39
  TRACK 13 AUDIO
    TITLE "0:"
    INDEX 01 00:20:71
  TRACK 14 AUDIO
    TITLE "2:cjc039_1047"
    INDEX 01 00:22:48
  TRACK 15 AUDIO
    TITLE "0:"
    INDEX 01 00:23:63
  TRACK 16 AUDIO
    TITLE "3:cjc039_1048"
    INDEX 01 00:24:37
  TRACK 17 AUDIO
    TITLE "0:"
    INDEX 01 00:28:55
  TRACK 18 AUDIO
    TITLE "2:cjc039_1049"
    INDEX 01 00:30:34
  TRACK 19 AUDIO
    TITLE "0:"
    INDEX 01 00:31:29
  TRACK 20 AUDIO
    TITLE "3:cjc039_1050"
    INDEX 01 00:32:13
  TRACK 21 AUDIO
    TITLE "0:"
    INDEX 01 00:35:74
  TRACK 22 AUDIO
    TITLE "2:cjc039_1051"
    INDEX 01 00:37:50
  TRACK 23 AUDIO
    TITLE "0:"
    INDEX 01 00:39:02
  TRACK 24 AUDIO
    TITLE "3:cjc039_1052"
    INDEX 01 00:39:56
  TRACK 25 AUDIO
    TITLE "0:"
    INDEX 01 00:43:33
  TRACK 26 AUDIO
    TITLE "2:cjc039_1053"
    INDEX 01 00:45:10
  TRACK 27 AUDIO
    TITLE "0:"
    INDEX 01 00:46:21
  TRACK 28 AUDIO
    TITLE "3:cjc039_1054"
    INDEX 01 00:46:72
  TRACK 29 AUDIO
    TITLE "0:"
    INDEX 01 00:50:29
  TRACK 30 AUDIO
    TITLE "2:cjc039_1055"
    INDEX 01 00:52:06
  TRACK 31 AUDIO
    TITLE "0:"
    INDEX 01 00:53:41
  TRACK 32 AUDIO
    TITLE "3:cjc039_1056"
    INDEX 01 00:54:17
  TRACK 33 AUDIO
    TITLE "0:"
    INDEX 01 00:58:52
  TRACK 34 AUDIO
    TITLE "2:cjc039_1057"
    INDEX 01 01:00:29
  TRACK 35 AUDIO
    TITLE "0:"
    INDEX 01 01:01:33
  TRACK 36 AUDIO
    TITLE "3:cjc039_1058"
    INDEX 01 01:02:12
  TRACK 37 AUDIO
    TITLE "0:"
    INDEX 01 01:06:20
  TRACK 38 AUDIO
    TITLE "2:cjc039_1059"
    INDEX 01 01:07:64
  TRACK 39 AUDIO
    TITLE "0:"
    INDEX 01 01:09:20
  TRACK 40 AUDIO
    TITLE "3:cjc039_1060"
    INDEX 01 01:09:69
  TRACK 41 AUDIO
    TITLE "0:"
    INDEX 01 01:14:23
  TRACK 42 AUDIO
    TITLE "2:cjc039_1061"
    INDEX 01 01:15:74
  TRACK 43 AUDIO
    TITLE "0:"
    INDEX 01 01:17:08
  TRACK 44 AUDIO
    TITLE "3:cjc039_1062"
    INDEX 01 01:17:63
  TRACK 45 AUDIO
    TITLE "0:"
    INDEX 01 01:21:69
  TRACK 46 AUDIO
    TITLE "2:cjc039_1063"
    INDEX 01 01:23:46
  TRACK 47 AUDIO
    TITLE "0:"
    INDEX 01 01:24:71
  TRACK 48 AUDIO
    TITLE "3:cjc039_1064"
    INDEX 01 01:25:45
  TRACK 49 AUDIO
    TITLE "0:"
    INDEX 01 01:30:38
  TRACK 50 AUDIO
    TITLE "2:cjc039_1065"
    INDEX 01 01:32:12
  TRACK 51 AUDIO
    TITLE "0:"
    INDEX 01 01:33:25
  TRACK 52 AUDIO
    TITLE "3:cjc039_1066"
    INDEX 01 01:34:05
  TRACK 53 AUDIO
    TITLE "0:"
    INDEX 01 01:38:18
  TRACK 54 AUDIO
    TITLE "2:cjc039_1067"
    INDEX 01 01:39:70
  TRACK 55 AUDIO
    TITLE "0:"
    INDEX 01 01:41:32
  TRACK 56 AUDIO
    TITLE "3:cjc039_1068"
    INDEX 01 01:42:10
  TRACK 57 AUDIO
    TITLE "0:"
    INDEX 01 01:46:43
  TRACK 58 AUDIO
    TITLE "2:cjc039_1069"
    INDEX 01 01:48:18
  TRACK 59 AUDIO
    TITLE "0:"
    INDEX 01 01:49:41
  TRACK 60 AUDIO
    TITLE "3:cjc039_1070"
    INDEX 01 01:50:19
  TRACK 61 AUDIO
    TITLE "0:"
    INDEX 01 01:53:53
  TRACK 62 AUDIO
    TITLE "2:cjc039_1071"
    INDEX 01 01:55:28
  TRACK 63 AUDIO
    TITLE "0:"
    INDEX 01 01:56:71
  TRACK 64 AUDIO
    TITLE "3:cjc039_1072"
    INDEX 01 01:57:47
  TRACK 65 AUDIO
    TITLE "0:"
    INDEX 01 02:02:07
  TRACK 66 AUDIO
    TITLE "2:cjc039_1073"
    INDEX 01 02:03:53
  TRACK 67 AUDIO
    TITLE "0:"
    INDEX 01 02:04:62
  TRACK 68 AUDIO
    TITLE "3:cjc039_1074"
    INDEX 01 02:05:36
  TRACK 69 AUDIO
    TITLE "0:"
    INDEX 01 02:07:71
  TRACK 70 AUDIO
    TITLE "2:cjc039_1075"
    INDEX 01 02:09:42
  TRACK 71 AUDIO
    TITLE "0:"
    INDEX 01 02:10:53
  TRACK 72 AUDIO
    TITLE "3:cjc039_1076"
    INDEX 01 02:11:31
  TRACK 73 AUDIO
    TITLE "0:"
    INDEX 01 02:16:11
  TRACK 74 AUDIO
    TITLE "2:cjc039_1077"
    INDEX 01 02:17:65
  TRACK 75 AUDIO
    TITLE "0:"
    INDEX 01 02:18:59
  TRACK 76 AUDIO
    TITLE "3:cjc039_1078"
    INDEX 01 02:19:39
  TRACK 77 AUDIO
    TITLE "0:"
    INDEX 01 02:23:23
  TRACK 78 AUDIO
    TITLE "2:cjc039_1079"
    INDEX 01 02:25:00
  TRACK 79 AUDIO
    TITLE "0:"
    INDEX 01 02:26:35
  TRACK 80 AUDIO
    TITLE "3:cjc039_1080"
    INDEX 01 02:27:14
  TRACK 81 AUDIO
    TITLE "0:"
    INDEX 01 02:32:57
